<svg xmlns="http://www.w3.org/2000/svg" xmlns:xlink="http://www.w3.org/1999/xlink" contentScriptType="text/ecmascript" width="144" zoomAndPan="magnify" contentStyleType="text/css" viewBox="0 0 144 143.999998" height="143.999998" preserveAspectRatio="xMidYMid meet" version="1.0"><defs><clipPath id="clip-0"><path d="M 0 97 L 121 97 L 121 141.839844 L 0 141.839844 Z M 0 97 " clip-rule="nonzero"/></clipPath><clipPath id="clip-1"><path d="M 26 2.339844 L 101 2.339844 L 101 95 L 26 95 Z M 26 2.339844 " clip-rule="nonzero"/></clipPath></defs><path fill="rgb(0%, 50.19989%, 21.569824%)" d="M 77.601562 34.4375 C 114.679688 36.144531 143.523438 48.839844 143.523438 64.226562 C 143.523438 72.652344 134.859375 80.28125 120.929688 85.730469 C 124.855469 82.082031 127.035156 78.058594 127.035156 73.832031 C 127.035156 61.601562 108.792969 51.066406 82.683594 46.40625 Z M 39.574219 36.6875 L 36.445312 44.554688 C 22.730469 45.78125 10.441406 48.523438 0.710938 52.328125 C 8.238281 45.335938 22.195312 39.710938 39.574219 36.6875 " fill-opacity="1" fill-rule="evenodd"/><path fill="rgb(49.409485%, 85.099792%, 34.118652%)" d="M 143.523438 88 C 132.078125 98.636719 105.765625 106.085938 75.164062 106.085938 C 34.078125 106.085938 0.710938 92.652344 0.710938 76.105469 C 0.710938 67.667969 9.371094 60.046875 23.292969 54.597656 C 19.375 58.25 17.199219 62.273438 17.199219 66.496094 C 17.199219 83.042969 50.558594 96.484375 91.652344 96.484375 C 111.804688 96.484375 130.109375 93.25 143.523438 88 " fill-opacity="1" fill-rule="evenodd"/><g clip-path="url(#clip-0)"><path fill="rgb(49.409485%, 85.099792%, 34.118652%)" d="M 120.148438 141.839844 L 100.914062 141.839844 C 100.914062 141.839844 94.445312 126.445312 86.5625 107.5625 C 89.285156 107.390625 92.007812 107.15625 94.710938 106.863281 C 98.054688 106.5 101.394531 106.046875 104.714844 105.484375 Z M 18.648438 141.839844 L 0.710938 141.839844 L 18.386719 97.492188 C 23.421875 99.835938 28.699219 101.617188 34.078125 103.003906 C 25.832031 123.886719 18.667969 141.792969 18.648438 141.839844 " fill-opacity="1" fill-rule="evenodd"/></g><g clip-path="url(#clip-1)"><path fill="rgb(0%, 50.19989%, 21.569824%)" d="M 100.050781 94.523438 C 93.730469 94.8125 87.378906 94.75 81.058594 94.378906 C 70.484375 69.003906 59.4375 42.320312 58.429688 39.148438 C 57.695312 42.492188 49.433594 63.945312 40.625 86.394531 C 39.953125 86.128906 39.285156 85.859375 38.621094 85.578125 C 34.132812 83.6875 29.761719 81.417969 26.015625 78.355469 L 58.429688 2.339844 L 100.050781 94.523438 " fill-opacity="1" fill-rule="evenodd"/></g></svg>